<?xml version="1.0" encoding="UTF-8"?> <svg xmlns="http://www.w3.org/2000/svg" width="20" height="20" viewBox="0 0 20 20" fill="none"><path d="M2.5 6.5C2.5 5.09987 2.5 4.3998 2.77248 3.86502C3.01217 3.39462 3.39462 3.01217 3.86502 2.77248C4.3998 2.5 5.09987 2.5 6.5 2.5H13.5C14.9001 2.5 15.6002 2.5 16.135 2.77248C16.6054 3.01217 16.9878 3.39462 17.2275 3.86502C17.5 4.3998 17.5 5.09987 17.5 6.5V11C17.5 12.4001 17.5 13.1002 17.2275 13.635C16.9878 14.1054 16.6054 14.4878 16.135 14.7275C15.6002 15 14.9001 15 13.5 15H11.4031C10.8831 15 10.6231 15 10.3743 15.051C10.1537 15.0963 9.94017 15.1712 9.73957 15.2737C9.51347 15.3892 9.31043 15.5517 8.90434 15.8765L6.91646 17.4668C6.56973 17.7442 6.39636 17.8829 6.25045 17.8831C6.12356 17.8832 6.00352 17.8255 5.92436 17.7263C5.83333 17.6123 5.83333 17.3903 5.83333 16.9463V15C5.05836 15 4.67087 15 4.35295 14.9148C3.49022 14.6836 2.81635 14.0098 2.58519 13.147C2.5 12.8291 2.5 12.4416 2.5 11.6667V6.5Z" stroke="black" stroke-width="1.75" stroke-linecap="round" stroke-linejoin="round"></path><path fill-rule="evenodd" clip-rule="evenodd" d="M9.99743 6.41604C9.24767 5.55033 7.9974 5.31746 7.05801 6.11019C6.11862 6.90292 5.98636 8.22833 6.72407 9.16589C7.18111 9.74674 8.32824 10.8076 9.13496 11.5308C9.43129 11.7964 9.57946 11.9293 9.75727 11.9828C9.90981 12.0287 10.0851 12.0287 10.2376 11.9828C10.4154 11.9293 10.5636 11.7964 10.8599 11.5308C11.6666 10.8076 12.8138 9.74674 13.2708 9.16589C14.0085 8.22833 13.8924 6.89458 12.9369 6.11019C11.9813 5.3258 10.7472 5.55033 9.99743 6.41604Z" stroke="black" stroke-width="1.75" stroke-linecap="round" stroke-linejoin="round"></path></svg> 